<svg width="25" height="24" viewBox="0 0 25 24" fill="none" xmlns="http://www.w3.org/2000/svg">
<path d="M15.5 4.25V19.7456C15.5 20.8243 14.2255 21.3965 13.4194 20.6797L8.92793 16.686C8.79063 16.5639 8.61329 16.4965 8.42956 16.4965H4.75C3.50736 16.4965 2.5 15.4891 2.5 14.2465V9.74859C2.5 8.50595 3.50736 7.49859 4.75 7.49859H8.42961C8.61333 7.49859 8.79065 7.43116 8.92794 7.30909L13.4195 3.31583C14.2255 2.59915 15.5 3.17138 15.5 4.25ZM19.4916 5.89733C19.8244 5.65079 20.2941 5.72077 20.5407 6.05362C21.7717 7.7157 22.5 9.7739 22.5 12C22.5 14.2261 21.7717 16.2843 20.5407 17.9464C20.2941 18.2793 19.8244 18.3492 19.4916 18.1027C19.1587 17.8562 19.0888 17.3865 19.3353 17.0536C20.3815 15.6411 21 13.8939 21 12C21 10.1062 20.3815 8.35896 19.3353 6.94641C19.0888 6.61356 19.1587 6.14387 19.4916 5.89733ZM17.643 8.36933C18.0072 8.17214 18.4624 8.30757 18.6596 8.67184C19.1958 9.66245 19.5 10.7968 19.5 12C19.5 13.2032 19.1958 14.3376 18.6596 15.3282C18.4624 15.6924 18.0072 15.8279 17.643 15.6307C17.2787 15.4335 17.1432 14.9783 17.3404 14.6141C17.7609 13.8373 18 12.9477 18 12C18 11.0523 17.7609 10.1627 17.3404 9.38593C17.1432 9.02167 17.2787 8.56652 17.643 8.36933Z" fill="#D8AC18"/>
</svg>
