<svg width="20" height="20" viewBox="0 0 20 20" fill="none" xmlns="http://www.w3.org/2000/svg">
<path d="M3.74974 3.75005C6.66522 2.29232 9.06224 4.06255 9.99974 5.31255C10.9372 4.06255 13.3343 2.29232 16.2497 3.75005C19.9997 5.62504 19.0622 10.3126 16.2497 13.1251C14.8774 14.4974 12.4605 16.9143 10.6927 18.2586C10.2843 18.5692 9.7257 18.5553 9.32645 18.233C7.706 16.9251 5.10289 14.4782 3.74974 13.1251C0.937231 10.3125 -0.00026238 5.62504 3.74974 3.75005Z" fill="#F8312F"/>
<path d="M9.99972 5.31253V7.21827C10.7933 5.54068 12.7655 3.30037 16.0359 3.64846C13.2174 2.37894 10.9142 4.09322 9.99972 5.31253Z" fill="#CA0B4A"/>
<path d="M7.4658 3.46062C6.41317 3.09383 5.14044 3.0547 3.74974 3.75005C-0.00026238 5.62504 0.937231 10.3125 3.74974 13.125C5.10289 14.4782 7.706 16.9251 9.32645 18.233C9.7257 18.5553 10.2843 18.5692 10.6927 18.2586C10.8516 18.1378 11.0157 18.0083 11.1839 17.8717C9.39969 16.5328 6.89579 14.4226 5.53668 13.2078C2.43868 10.4388 1.40602 5.82372 5.53668 3.9777C6.20781 3.67777 6.85401 3.51663 7.4658 3.46062Z" fill="#CA0B4A"/>
<ellipse cx="14.6735" cy="7.87101" rx="1.77221" ry="2.98828" transform="rotate(30 14.6735 7.87101)" fill="#F37366"/>
</svg>
