<svg width="29" height="28" viewBox="0 0 29 28" fill="none" xmlns="http://www.w3.org/2000/svg">
<path d="M8.75 14C8.75 15.2426 7.74264 16.25 6.5 16.25C5.25736 16.25 4.25 15.2426 4.25 14C4.25 12.7574 5.25736 11.75 6.5 11.75C7.74264 11.75 8.75 12.7574 8.75 14ZM16.75 14C16.75 15.2426 15.7426 16.25 14.5 16.25C13.2574 16.25 12.25 15.2426 12.25 14C12.25 12.7574 13.2574 11.75 14.5 11.75C15.7426 11.75 16.75 12.7574 16.75 14ZM22.5 16.25C23.7426 16.25 24.75 15.2426 24.75 14C24.75 12.7574 23.7426 11.75 22.5 11.75C21.2574 11.75 20.25 12.7574 20.25 14C20.25 15.2426 21.2574 16.25 22.5 16.25Z" fill="#0073FF"/>
</svg>
