<svg width="25" height="24" viewBox="0 0 25 24" fill="none" xmlns="http://www.w3.org/2000/svg">
<path d="M16.7802 9.78034C17.0731 9.48746 17.0731 9.01258 16.7802 8.71968C16.4873 8.42678 16.0125 8.42677 15.7196 8.71966L11.2499 13.1891L9.77642 11.7157C9.48353 11.4228 9.00865 11.4228 8.71576 11.7157C8.42287 12.0085 8.42287 12.4834 8.71576 12.7763L10.7196 14.7801C11.0124 15.073 11.4873 15.073 11.7802 14.7801L16.7802 9.78034ZM6.75 3C4.95507 3 3.5 4.45507 3.5 6.25V17.75C3.5 19.5449 4.95507 21 6.75 21H18.25C20.0449 21 21.5 19.5449 21.5 17.75V6.25C21.5 4.45507 20.0449 3 18.25 3H6.75ZM5 6.25C5 5.2835 5.7835 4.5 6.75 4.5H18.25C19.2165 4.5 20 5.2835 20 6.25V17.75C20 18.7165 19.2165 19.5 18.25 19.5H6.75C5.7835 19.5 5 18.7165 5 17.75V6.25Z" fill="#0073FF"/>
</svg>
