<svg width="16" height="16" viewBox="0 0 16 16" fill="none" xmlns="http://www.w3.org/2000/svg">
<path d="M3.43414 8.88387L8.03033 4.28767C8.90901 3.40899 10.3336 3.40899 11.2123 4.28767C12.091 5.16635 12.091 6.59097 11.2123 7.46965L5.90901 12.773C5.61612 13.0658 5.14125 13.0658 4.84835 12.773C4.55546 12.4801 4.55546 12.0052 4.84835 11.7123L10.1517 6.40899C10.4445 6.1161 10.4445 5.64123 10.1517 5.34833C9.85876 5.05544 9.38389 5.05544 9.09099 5.34833L3.78769 10.6516C2.90901 11.5303 2.90901 12.9549 3.78769 13.8336C4.66637 14.7123 6.09099 14.7123 6.96967 13.8336L12.273 8.53031C13.7374 7.06585 13.7374 4.69148 12.273 3.22701C10.8085 1.76255 8.43414 1.76255 6.96967 3.22701L2.37348 7.82321C2.08059 8.1161 2.08059 8.59097 2.37348 8.88387C2.66637 9.17676 3.14125 9.17676 3.43414 8.88387Z" fill="#111111"/>
</svg>
