<svg width="48" height="32" viewBox="0 0 48 32" fill="none" xmlns="http://www.w3.org/2000/svg">
<rect width="48" height="32" rx="10" fill="#8DA4D1"/>
<g clip-path="url(#clip0_358_4236)">
<path d="M30.1226 8.61173L32.2296 13.2458C32.6431 13.3295 33.0453 13.4205 33.4341 13.5188C33.8357 13.6204 34.0789 14.0283 33.9773 14.4299C33.8757 14.8314 33.4678 15.0746 33.0663 14.973C32.5907 14.8528 32.0898 14.7432 31.5676 14.6447C27.0144 13.7852 20.9883 13.7851 16.4347 14.6443C15.9118 14.743 15.4102 14.8526 14.9341 14.973C14.5325 15.0746 14.1246 14.8314 14.0231 14.4298C13.9215 14.0283 14.1647 13.6204 14.5663 13.5188C14.9557 13.4203 15.3585 13.3292 15.7726 13.2454L17.8787 8.61204C18.3249 7.63031 19.3038 7 20.3822 7H27.6192C28.6975 7 29.6762 7.63017 30.1226 8.61173ZM15.5 20.5C15.5 18.8431 16.8431 17.5 18.5 17.5C20.1569 17.5 21.5 18.8431 21.5 20.5C21.5 22.1569 20.1569 23.5 18.5 23.5C16.8431 23.5 15.5 22.1569 15.5 20.5ZM18.5 16C16.0147 16 14 18.0147 14 20.5C14 22.9853 16.0147 25 18.5 25C20.6416 25 22.4338 23.504 22.8885 21.5H25.1115C25.5662 23.504 27.3584 25 29.5 25C31.9853 25 34 22.9853 34 20.5C34 18.0147 31.9853 16 29.5 16C27.1837 16 25.2762 17.75 25.0275 20H22.9725C22.7238 17.75 20.8163 16 18.5 16ZM26.5 20.5C26.5 18.8431 27.8431 17.5 29.5 17.5C31.1569 17.5 32.5 18.8431 32.5 20.5C32.5 22.1569 31.1569 23.5 29.5 23.5C27.8431 23.5 26.5 22.1569 26.5 20.5Z" fill="white"/>
</g>
<defs>
<clipPath id="clip0_358_4236">
<rect width="20" height="20" fill="white" transform="translate(14 6)"/>
</clipPath>
</defs>
</svg>
