<svg width="72" height="72" viewBox="0 0 72 72" fill="none" xmlns="http://www.w3.org/2000/svg">
<rect width="72" height="72" rx="36" fill="#FF005C"/>
<path d="M42.25 35C42.6297 35 42.9435 35.2822 42.9932 35.6482L43 35.75V36.25C43 39.8094 40.245 42.7254 36.751 42.9817L36.75 45.25C36.75 45.6642 36.4142 46 36 46C35.6203 46 35.3065 45.7178 35.2568 45.3518L35.25 45.25L35.25 42.9818C31.8332 42.7316 29.1228 39.938 29.0041 36.4863L29 36.25V35.75C29 35.3358 29.3358 35 29.75 35C30.1297 35 30.4435 35.2822 30.4932 35.6482L30.5 35.75V36.25C30.5 39.077 32.7344 41.3821 35.5336 41.4956L35.75 41.5H36.25C39.077 41.5 41.3821 39.2656 41.4956 36.4664L41.5 36.25V35.75C41.5 35.3358 41.8358 35 42.25 35ZM36 26C38.2091 26 40 27.7909 40 30V36C40 38.2091 38.2091 40 36 40C33.7909 40 32 38.2091 32 36V30C32 27.7909 33.7909 26 36 26Z" fill="white"/>
</svg>
