<svg width="22" height="22" viewBox="0 0 22 22" fill="none" xmlns="http://www.w3.org/2000/svg">
<rect x="1" y="1" width="20" height="20" rx="10" fill="#A5A5A5"/>
<g clip-path="url(#clip0_5018_36383)">
<path d="M11.8332 12.4215L16.1224 16.7106C16.2851 16.8734 16.5489 16.8734 16.7116 16.7106C16.8743 16.5479 16.8743 16.2841 16.7116 16.1214L5.87829 5.28805C5.71557 5.12534 5.45175 5.12534 5.28903 5.28805C5.12631 5.45077 5.12631 5.71459 5.28903 5.87731L7.905 8.49328H7.24992C6.55956 8.49328 5.99992 9.05292 5.99992 9.74328V12.2341C5.99992 12.9245 6.55956 13.4841 7.24992 13.4841H8.68587L11.1246 15.8799C11.2443 15.9975 11.4229 16.0318 11.5777 15.9669C11.7325 15.902 11.8332 15.7505 11.8332 15.5827V12.4215ZM14.0911 12.3224L13.4287 11.66C13.4745 11.4666 13.5035 11.2463 13.5035 10.9981C13.5035 10.3752 13.3211 9.92868 13.1467 9.64176C13.0588 9.4972 12.9722 9.39202 12.9102 9.32521C12.8793 9.29187 12.8548 9.26832 12.8397 9.25444C12.8321 9.24751 12.8269 9.24302 12.8245 9.24096L12.8253 9.24159C12.6455 9.09828 12.6161 8.8366 12.7593 8.65662C12.9026 8.47654 13.1647 8.44668 13.3448 8.58995L13.3455 8.5905L13.3462 8.59113L13.348 8.59257L13.3525 8.59623L13.365 8.60668C13.3748 8.61504 13.3876 8.62621 13.4028 8.6402C13.4333 8.66818 13.474 8.70759 13.5214 8.75866C13.6159 8.86068 13.738 9.01014 13.8588 9.20886C14.1017 9.60847 14.3368 10.203 14.3368 10.9981C14.3368 11.5278 14.2325 11.9687 14.0911 12.3224ZM15.3552 13.5865L14.7347 12.9661C14.9803 12.4425 15.1693 11.7856 15.1693 11.0027C15.1693 9.88973 14.7874 9.02969 14.4037 8.44525C14.2116 8.15276 14.0201 7.93094 13.8784 7.78378C13.8077 7.71032 13.7497 7.65585 13.7109 7.62086C13.6914 7.60337 13.6768 7.59079 13.6678 7.58317L13.6586 7.57549C13.4788 7.43211 13.4487 7.16976 13.592 6.98982C13.7353 6.80979 13.9974 6.78005 14.1775 6.92339L14.1789 6.92454L14.1809 6.92619L14.1868 6.93099L14.2055 6.94655C14.2209 6.95957 14.2422 6.97789 14.2683 7.00146C14.3207 7.04857 14.3931 7.11681 14.4787 7.20576C14.6498 7.38341 14.8753 7.64519 15.1003 7.98789C15.5506 8.67382 16.0027 9.69046 16.0027 11.0027C16.0027 12.0644 15.7068 12.9316 15.3552 13.5865ZM11.8332 10.0646L9.48476 7.71609L11.1258 6.11755C11.2458 6.00065 11.4242 5.96699 11.5785 6.03212C11.7329 6.09724 11.8332 6.24848 11.8332 6.41601V10.0646Z" fill="#F6F6F6"/>
</g>
<rect x="1" y="1" width="20" height="20" rx="10" stroke="#F6F6F6" stroke-width="2"/>
<defs>
<clipPath id="clip0_5018_36383">
<rect width="10" height="10" fill="white" transform="translate(6 6)"/>
</clipPath>
</defs>
</svg>
