<svg width="20" height="20" viewBox="0 0 20 20" fill="none" xmlns="http://www.w3.org/2000/svg">
<path d="M11.273 3.97699C11.5392 4.24326 11.5634 4.65992 11.3456 4.95354L11.273 5.03765L8.31 7.99932L10 7.99997C14.1979 7.99997 17.6162 11.3376 17.7462 15.5039L17.75 15.75C17.75 16.1642 17.4142 16.5 17 16.5C16.5858 16.5 16.25 16.1642 16.25 15.75C16.25 12.3749 13.5748 9.62465 10.2291 9.50409L10 9.49997L8.31 9.49932L11.273 12.4623C11.5659 12.7552 11.5659 13.23 11.273 13.5229C11.0067 13.7892 10.59 13.8134 10.2964 13.5956L10.2123 13.5229L5.96967 9.28029C5.7034 9.01403 5.6792 8.59736 5.89705 8.30375L5.96967 8.21963L10.2123 3.97699C10.5052 3.6841 10.9801 3.6841 11.273 3.97699ZM1.96967 8.22228L6.21231 3.97964C6.5052 3.68674 6.98008 3.68674 7.27297 3.97964C7.53924 4.2459 7.56344 4.66257 7.34559 4.95618L7.27297 5.0403L3.56066 8.75261L7.27297 12.4649C7.56586 12.7578 7.56586 13.2327 7.27297 13.5256C7.0067 13.7918 6.59004 13.816 6.29643 13.5982L6.21231 13.5256L1.96967 9.28294C1.7034 9.01667 1.6792 8.60001 1.89705 8.30639L1.96967 8.22228L6.21231 3.97964L1.96967 8.22228Z" fill="#0073FF"/>
</svg>
