<svg width="25" height="24" viewBox="0 0 25 24" fill="none" xmlns="http://www.w3.org/2000/svg">
<path d="M3.78034 2.21968C3.48745 1.92678 3.01257 1.92677 2.71968 2.21966C2.42678 2.51255 2.42677 2.98743 2.71966 3.28032L6.93783 7.49858H4.75C3.50736 7.49858 2.5 8.50594 2.5 9.74858V14.2465C2.5 15.4891 3.50736 16.4965 4.75 16.4965H8.42956C8.61329 16.4965 8.79063 16.5639 8.92793 16.686L13.4194 20.6797C14.2255 21.3965 15.5 20.8243 15.5 19.7456V16.0609L21.2194 21.7805C21.5123 22.0734 21.9872 22.0734 22.2801 21.7805C22.573 21.4876 22.573 21.0127 22.2801 20.7198L3.78034 2.21968ZM17.641 13.9593L18.779 15.0973C19.2408 14.1628 19.5 13.1107 19.5 12C19.5 10.7968 19.1958 9.66244 18.6596 8.67183C18.4624 8.30757 18.0072 8.17213 17.643 8.36932C17.2787 8.56651 17.1432 9.02166 17.3404 9.38593C17.7609 10.1627 18 11.0523 18 12C18 12.691 17.8729 13.3512 17.641 13.9593ZM19.8881 16.2064L20.9815 17.2999C21.9437 15.7631 22.5 13.9457 22.5 12C22.5 9.77389 21.7717 7.71569 20.5407 6.05362C20.2941 5.72076 19.8244 5.65079 19.4916 5.89732C19.1587 6.14386 19.0888 6.61355 19.3353 6.9464C20.3815 8.35896 21 10.1062 21 12C21 13.5311 20.5958 14.9663 19.8881 16.2064ZM10.02 6.33813L15.5 11.8182V4.25C15.5 3.17137 14.2255 2.59914 13.4195 3.31582L10.02 6.33813Z" fill="#A5A5A5"/>
</svg>
