<svg width="29" height="28" viewBox="0 0 29 28" fill="none" xmlns="http://www.w3.org/2000/svg">
<path d="M12 2.75C16.8325 2.75 20.75 6.66751 20.75 11.5C20.75 13.6462 19.9773 15.6119 18.695 17.1341L25.5303 23.9697C25.8232 24.2626 25.8232 24.7374 25.5303 25.0303C25.2641 25.2966 24.8474 25.3208 24.5538 25.1029L24.4697 25.0303L17.6341 18.195C16.1119 19.4773 14.1462 20.25 12 20.25C7.16751 20.25 3.25 16.3325 3.25 11.5C3.25 6.66751 7.16751 2.75 12 2.75ZM12 4.25C7.99594 4.25 4.75 7.49594 4.75 11.5C4.75 15.5041 7.99594 18.75 12 18.75C16.0041 18.75 19.25 15.5041 19.25 11.5C19.25 7.49594 16.0041 4.25 12 4.25Z" fill="#0073FF"/>
</svg>
