<svg width="29" height="28" viewBox="0 0 29 28" fill="none" xmlns="http://www.w3.org/2000/svg">
<path d="M8.42062 2.64452L10.0805 2.14418C11.6435 1.67307 13.3134 2.43444 13.9827 3.92332L15.016 6.2218C15.5865 7.49088 15.2858 8.98234 14.2682 9.93128L12.4633 11.6144C12.441 11.6352 12.4227 11.6599 12.4093 11.6873C12.2205 12.0732 12.5066 13.1042 13.406 14.6621C14.4198 16.4181 15.2034 17.113 15.5654 17.0051L17.9347 16.2807C19.265 15.874 20.7066 16.359 21.5205 17.487L22.988 19.5208C23.9407 20.8412 23.7693 22.6627 22.5872 23.7822L21.3251 24.9775C20.4336 25.8217 19.1853 26.1761 17.9832 25.9262C14.4661 25.195 11.3149 22.3627 8.50325 17.4928C5.68884 12.6181 4.8126 8.46946 5.94299 5.05605C6.32692 3.89672 7.25134 2.99697 8.42062 2.64452ZM8.85352 4.08069C8.15195 4.29216 7.5973 4.83202 7.36694 5.52761C6.39295 8.46876 7.18191 12.2041 9.80229 16.7428C12.4202 21.2771 15.2577 23.8275 18.2885 24.4576C19.0098 24.6075 19.7588 24.3949 20.2937 23.8884L21.5557 22.6931C22.1923 22.0903 22.2845 21.1095 21.7716 20.3985L20.3041 18.3647C19.8658 17.7573 19.0896 17.4962 18.3733 17.7152L15.9989 18.4411C14.6847 18.8328 13.4496 17.7376 12.107 15.4121C10.9704 13.4435 10.5759 12.0216 11.0619 11.0281C11.1558 10.8362 11.2841 10.663 11.4403 10.5173L13.2452 8.83425C13.7932 8.32328 13.9551 7.52018 13.6479 6.83684L12.6146 4.53836C12.2542 3.73665 11.355 3.32668 10.5134 3.58036L8.85352 4.08069Z" fill="#0073FF"/>
</svg>
